<svg width="30" height="30" viewBox="0 0 30 30" fill="none" xmlns="http://www.w3.org/2000/svg">
<path d="M2.5 5C2.5 4.33696 2.76339 3.70107 3.23223 3.23223C3.70107 2.76339 4.33696 2.5 5 2.5H17.5C18.163 2.5 18.7989 2.76339 19.2678 3.23223C19.7366 3.70107 20 4.33696 20 5V10H25C25.663 10 26.2989 10.2634 26.7678 10.7322C27.2366 11.2011 27.5 11.837 27.5 12.5V25C27.5 25.663 27.2366 26.2989 26.7678 26.7678C26.2989 27.2366 25.663 27.5 25 27.5H12.5C11.837 27.5 11.2011 27.2366 10.7322 26.7678C10.2634 26.2989 10 25.663 10 25V20H5C4.33696 20 3.70107 19.7366 3.23223 19.2678C2.76339 18.7989 2.5 18.163 2.5 17.5V5ZM12.5 20V25H25V12.5H20V17.5C20 18.163 19.7366 18.7989 19.2678 19.2678C18.7989 19.7366 18.163 20 17.5 20H12.5ZM17.5 17.5V5H5V17.5H17.5Z" fill="white"/>
</svg>
