<svg width="30" height="30" viewBox="0 0 30 30" fill="none" xmlns="http://www.w3.org/2000/svg">
<path d="M6.61626 6.61623C6.85067 6.38189 7.16855 6.25025 7.50001 6.25025C7.83146 6.25025 8.14935 6.38189 8.38376 6.61623L15 13.2325L21.6163 6.61623C21.7316 6.49684 21.8695 6.40161 22.022 6.3361C22.1745 6.27059 22.3385 6.23611 22.5045 6.23467C22.6705 6.23322 22.8351 6.26485 22.9887 6.3277C23.1423 6.39055 23.2819 6.48337 23.3993 6.60074C23.5166 6.7181 23.6094 6.85767 23.6723 7.01129C23.7351 7.16491 23.7668 7.32951 23.7653 7.49548C23.7639 7.66146 23.7294 7.82548 23.6639 7.97798C23.5984 8.13049 23.5031 8.26842 23.3838 8.38373L16.7675 15L23.3838 21.6162C23.6115 21.852 23.7374 22.1677 23.7346 22.4955C23.7318 22.8232 23.6003 23.1367 23.3685 23.3685C23.1368 23.6003 22.8233 23.7317 22.4955 23.7346C22.1678 23.7374 21.852 23.6114 21.6163 23.3837L15 16.7675L8.38376 23.3837C8.148 23.6114 7.83225 23.7374 7.50451 23.7346C7.17676 23.7317 6.86324 23.6003 6.63148 23.3685C6.39972 23.1367 6.26826 22.8232 6.26541 22.4955C6.26257 22.1677 6.38856 21.852 6.61626 21.6162L13.2325 15L6.61626 8.38373C6.38192 8.14932 6.25027 7.83143 6.25027 7.49998C6.25027 7.16852 6.38192 6.85064 6.61626 6.61623V6.61623Z" fill="white"/>
</svg>
