<svg width="30" height="30" viewBox="0 0 30 30" fill="none" xmlns="http://www.w3.org/2000/svg">
<path d="M14.1163 2.86623C14.3507 2.63189 14.6685 2.50024 15 2.50024C15.3315 2.50024 15.6493 2.63189 15.8837 2.86623L20.8838 7.86623C21.1114 8.10198 21.2374 8.41773 21.2346 8.74548C21.2317 9.07322 21.1003 9.38674 20.8685 9.6185C20.6368 9.85026 20.3232 9.98172 19.9955 9.98457C19.6678 9.98742 19.352 9.86142 19.1163 9.63373L16.25 6.76748V20C16.25 20.3315 16.1183 20.6494 15.8839 20.8839C15.6495 21.1183 15.3315 21.25 15 21.25C14.6685 21.25 14.3505 21.1183 14.1161 20.8839C13.8817 20.6494 13.75 20.3315 13.75 20V6.76748L10.8837 9.63373C10.648 9.86142 10.3322 9.98742 10.0045 9.98457C9.67675 9.98172 9.36324 9.85026 9.13148 9.6185C8.89972 9.38674 8.76826 9.07322 8.76541 8.74548C8.76256 8.41773 8.88855 8.10198 9.11625 7.86623L14.1163 2.86623V2.86623ZM6.25 21.25C6.58152 21.25 6.89946 21.3817 7.13388 21.6161C7.3683 21.8505 7.5 22.1685 7.5 22.5V25H22.5V22.5C22.5 22.1685 22.6317 21.8505 22.8661 21.6161C23.1005 21.3817 23.4185 21.25 23.75 21.25C24.0815 21.25 24.3995 21.3817 24.6339 21.6161C24.8683 21.8505 25 22.1685 25 22.5V25C25 25.663 24.7366 26.2989 24.2678 26.7677C23.7989 27.2366 23.163 27.5 22.5 27.5H7.5C6.83696 27.5 6.20107 27.2366 5.73223 26.7677C5.26339 26.2989 5 25.663 5 25V22.5C5 22.1685 5.1317 21.8505 5.36612 21.6161C5.60054 21.3817 5.91848 21.25 6.25 21.25Z" fill="white"/>
</svg>
