<svg width="30" height="30" viewBox="0 0 30 30" fill="none" xmlns="http://www.w3.org/2000/svg">
<path d="M15 5C17.06 5 18.75 6.69 18.75 8.75V12.5H11.25V8.75C11.25 6.69 12.94 5 15 5ZM21.25 12.5V8.75C21.25 5.31 18.44 2.5 15 2.5C11.56 2.5 8.75 5.31 8.75 8.75V12.5H7.5C6.83696 12.5 6.20107 12.7634 5.73223 13.2322C5.26339 13.7011 5 14.337 5 15V25C5 25.663 5.26339 26.2989 5.73223 26.7678C6.20107 27.2366 6.83696 27.5 7.5 27.5H22.5C23.163 27.5 23.7989 27.2366 24.2678 26.7678C24.7366 26.2989 25 25.663 25 25V15C25 14.337 24.7366 13.7011 24.2678 13.2322C23.7989 12.7634 23.163 12.5 22.5 12.5H21.25ZM7.5 15H22.5V25H7.5V15Z" fill="white"/>
</svg>
