<svg width="30" height="30" viewBox="0 0 30 30" fill="none" xmlns="http://www.w3.org/2000/svg">
<path d="M27.405 8.27123C27.3421 8.11969 27.2499 7.98206 27.1338 7.86623L23.3838 4.11623C23.2684 3.99684 23.1305 3.90161 22.978 3.8361C22.8255 3.77059 22.6615 3.73611 22.4955 3.73467C22.3295 3.73322 22.1649 3.76485 22.0113 3.8277C21.8577 3.89055 21.7181 3.98337 21.6008 4.10074C21.4834 4.2181 21.3906 4.35767 21.3277 4.51129C21.2649 4.66491 21.2332 4.82951 21.2347 4.99548C21.2361 5.16146 21.2706 5.32548 21.3361 5.47798C21.4016 5.63049 21.4969 5.76842 21.6162 5.88373L23.2325 7.49998H19.0813C18.0018 7.49993 16.9407 7.77945 16.0014 8.31133C15.0621 8.8432 14.2765 9.60929 13.7213 10.535L9.13375 18.1787C8.80081 18.7339 8.32985 19.1934 7.76668 19.5125C7.20351 19.8317 6.56732 19.9996 5.92 20H3.75C3.41848 20 3.10054 20.1317 2.86612 20.3661C2.6317 20.6005 2.5 20.9185 2.5 21.25C2.5 21.5815 2.6317 21.8994 2.86612 22.1339C3.10054 22.3683 3.41848 22.5 3.75 22.5H5.91875C6.9982 22.5 8.05927 22.2205 8.9986 21.6886C9.93792 21.1568 10.7235 20.3907 11.2787 19.465L15.8662 11.8212C16.1992 11.2661 16.6702 10.8066 17.2333 10.4874C17.7965 10.1683 18.4327 10.0004 19.08 9.99998H23.23L21.615 11.6162C21.3873 11.852 21.2613 12.1677 21.2642 12.4955C21.267 12.8232 21.3985 13.1367 21.6302 13.3685C21.862 13.6003 22.1755 13.7317 22.5032 13.7346C22.831 13.7374 23.1467 13.6114 23.3825 13.3837L27.1325 9.63373C27.249 9.51791 27.3414 9.38021 27.4045 9.22854C27.4675 9.07687 27.5 8.91424 27.5 8.74998L27.405 8.27123ZM27.405 8.27123C27.4675 8.42182 27.4997 8.5832 27.5 8.74623L27.405 8.27123Z" fill="white"/>
<path d="M27.1325 22.135L23.3838 25.885C23.1492 26.1194 22.8311 26.251 22.4996 26.2509C22.168 26.2508 21.85 26.1189 21.6156 25.8844C21.3812 25.6498 21.2496 25.3318 21.2497 25.0002C21.2499 24.6686 21.3817 24.3506 21.6162 24.1162L23.2325 22.5H19.0813C18.0018 22.5001 16.9407 22.2205 16.0014 21.6887C15.0621 21.1568 14.2765 20.3907 13.7213 19.465L9.13375 11.8212C8.80081 11.2661 8.32985 10.8066 7.76668 10.4875C7.20351 10.1683 6.56732 10.0004 5.92 10H3.75C3.41848 10 3.10054 9.8683 2.86612 9.63388C2.6317 9.39946 2.5 9.08152 2.5 8.75C2.5 8.41848 2.6317 8.10054 2.86612 7.86612C3.10054 7.6317 3.41848 7.5 3.75 7.5H5.91875C6.9982 7.49995 8.05927 7.77947 8.9986 8.31135C9.93792 8.84322 10.7235 9.60931 11.2787 10.535L15.8662 18.1788C16.1992 18.7339 16.6702 19.1934 17.2333 19.5125C17.7965 19.8317 18.4327 19.9996 19.08 20H23.23L21.615 18.3837C21.3873 18.148 21.2613 17.8322 21.2642 17.5045C21.267 17.1768 21.3985 16.8632 21.6302 16.6315C21.862 16.3997 22.1755 16.2683 22.5032 16.2654C22.831 16.2626 23.1467 16.3886 23.3825 16.6163L27.1325 20.3662C27.3762 20.6087 27.4975 20.9287 27.4988 21.2462V21.25C27.4989 21.4145 27.4665 21.5773 27.4035 21.7292C27.3404 21.8811 27.2479 22.019 27.1312 22.135H27.1325Z" fill="white"/>
</svg>
