<svg width="30" height="30" viewBox="0 0 30 30" fill="none" xmlns="http://www.w3.org/2000/svg">
<path d="M15 5C12.94 5 11.25 6.69 11.25 8.75V12.5H22.5C23.163 12.5 23.7989 12.7634 24.2678 13.2322C24.7366 13.7011 25 14.337 25 15V25C25 25.663 24.7366 26.2989 24.2678 26.7678C23.7989 27.2366 23.163 27.5 22.5 27.5H7.5C6.83696 27.5 6.20107 27.2366 5.73223 26.7678C5.26339 26.2989 5 25.663 5 25V15C5 14.337 5.26339 13.7011 5.73223 13.2322C6.20107 12.7634 6.83696 12.5 7.5 12.5H8.75V8.75C8.75 5.31 11.56 2.5 15 2.5C18.44 2.5 21.25 5.31 21.25 8.75C21.25 9.08152 21.1183 9.39946 20.8839 9.63388C20.6495 9.8683 20.3315 10 20 10C19.6685 10 19.3505 9.8683 19.1161 9.63388C18.8817 9.39946 18.75 9.08152 18.75 8.75C18.75 6.69 17.06 5 15 5ZM7.5 15V25H22.5V15H7.5Z" fill="white"/>
</svg>
